<?xml version="1.0" encoding="UTF-8" standalone="no"?>
<!-- Created with Inkscape (http://www.inkscape.org/) -->

<svg
   width="1366"
   height="768"
   viewBox="0 0 361.42085 203.19999"
   version="1.1"
   id="svg5"
   inkscape:version="1.2.2 (732a01da63, 2022-12-09)"
   sodipodi:docname="Background Shape.svg"
   xmlns:inkscape="http://www.inkscape.org/namespaces/inkscape"
   xmlns:sodipodi="http://sodipodi.sourceforge.net/DTD/sodipodi-0.dtd"
   xmlns="http://www.w3.org/2000/svg"
   xmlns:svg="http://www.w3.org/2000/svg">
  <sodipodi:namedview
     id="namedview7"
     pagecolor="#ffffff"
     bordercolor="#000000"
     borderopacity="0.25"
     inkscape:showpageshadow="2"
     inkscape:pageopacity="0.0"
     inkscape:pagecheckerboard="0"
     inkscape:deskcolor="#d1d1d1"
     inkscape:document-units="mm"
     showgrid="false"
     inkscape:zoom="0.33952585"
     inkscape:cx="139.90098"
     inkscape:cy="424.12087"
     inkscape:window-width="1366"
     inkscape:window-height="705"
     inkscape:window-x="-8"
     inkscape:window-y="-8"
     inkscape:window-maximized="1"
     inkscape:current-layer="layer1" />
  <defs
     id="defs2" />
  <g
     inkscape:label="Layer 1"
     inkscape:groupmode="layer"
     id="layer1">
    <path
       id="path4342"
       style="fill:#444444;fill-opacity:0.35254237;stroke:#000000;stroke-width:0;stroke-opacity:0.412281"
       d="M 98.026644,61.56257 C -24.809085,57.093078 196.21505,203.2 196.21505,203.2 h 361.42083 v -31.75982 c 0,0 77.36503,-105.828323 0,-108.610671 C 532.49549,61.925362 444.4449,88.780288 398.82593,62.636116 367.5112,44.689684 324.15464,14.585153 260.26622,26.859321 215.42303,35.474541 220.86237,66.032063 98.026644,61.56257 Z"
       sodipodi:nodetypes="zcccsssz" />
    <path
       id="path26661"
       style="fill:#171717;fill-opacity:1;stroke:#000000;stroke-width:0;stroke-opacity:0.412281"
       d="M -39.742924,88.057851 3.3333332e-6,203.2 H 361.42083 v -31.75982 c 0,0 77.36503,-105.828325 0,-108.610674 C 336.28044,61.92536 221.73457,88.001013 176.1156,61.856841 144.80087,43.910409 121.70541,21.598608 64.051177,26.859319 18.576827,31.008666 -39.742924,88.057851 -39.742924,88.057851 Z"
       sodipodi:nodetypes="ccccsssc" />
  </g>
</svg>
