<?xml version="1.0" encoding="UTF-8" standalone="no"?>
<!-- Uploaded to: SVG Repo, www.svgrepo.com, Generator: SVG Repo Mixer Tools -->

<svg
   xmlns:dc="http://purl.org/dc/elements/1.1/"
   xmlns:cc="http://creativecommons.org/ns#"
   xmlns:rdf="http://www.w3.org/1999/02/22-rdf-syntax-ns#"
   xmlns:svg="http://www.w3.org/2000/svg"
   xmlns="http://www.w3.org/2000/svg"
   xmlns:sodipodi="http://sodipodi.sourceforge.net/DTD/sodipodi-0.dtd"
   xmlns:inkscape="http://www.inkscape.org/namespaces/inkscape"
   fill="#000000"
   width="800px"
   height="800px"
   viewBox="0 0 32 32"
   version="1.1"
   id="svg6"
   sodipodi:docname="facebook.svg"
   inkscape:version="0.92.4 (5da689c313, 2019-01-14)">
  <metadata
     id="metadata12">
    <rdf:RDF>
      <cc:Work
         rdf:about="">
        <dc:format>image/svg+xml</dc:format>
        <dc:type
           rdf:resource="http://purl.org/dc/dcmitype/StillImage" />
      </cc:Work>
    </rdf:RDF>
  </metadata>
  <defs
     id="defs10" />
  <sodipodi:namedview
     pagecolor="#ffffff"
     bordercolor="#666666"
     borderopacity="1"
     objecttolerance="10"
     gridtolerance="10"
     guidetolerance="10"
     inkscape:pageopacity="0"
     inkscape:pageshadow="2"
     inkscape:window-width="640"
     inkscape:window-height="480"
     id="namedview8"
     showgrid="false"
     inkscape:zoom="0.295"
     inkscape:cx="400"
     inkscape:cy="400"
     inkscape:window-x="0"
     inkscape:window-y="0"
     inkscape:window-maximized="0"
     inkscape:current-layer="svg6" />
  <title
     id="title2">facebook</title>
  <path
     d="M30.996 16.091c-0.001-8.281-6.714-14.994-14.996-14.994s-14.996 6.714-14.996 14.996c0 7.455 5.44 13.639 12.566 14.8l0.086 0.012v-10.478h-3.808v-4.336h3.808v-3.302c-0.019-0.167-0.029-0.361-0.029-0.557 0-2.923 2.37-5.293 5.293-5.293 0.141 0 0.281 0.006 0.42 0.016l-0.018-0.001c1.199 0.017 2.359 0.123 3.491 0.312l-0.134-0.019v3.69h-1.892c-0.086-0.012-0.185-0.019-0.285-0.019-1.197 0-2.168 0.97-2.168 2.168 0 0.068 0.003 0.135 0.009 0.202l-0.001-0.009v2.812h4.159l-0.665 4.336h-3.494v10.478c7.213-1.174 12.653-7.359 12.654-14.814v-0z"
     id="path4"
     style="fill:#ffffff" />
</svg>
